<svg width="960" height="600" version="1.1" xmlns="http://www.w3.org/2000/svg"><g></g><g transform="translate(480,300)scale(1,1)"><text text-anchor="middle" transform="translate(3,63)rotate(0)scale(1,1)" style="font-size: 100px; font-family: Impact; fill: rgb(156, 158, 222);">Albufeira</text><text text-anchor="middle" transform="translate(271,44)rotate(30.00000044529205)scale(0.9999999865388264,0.9999999865388264)" style="font-size: 100px; font-family: Impact; fill: rgb(99, 121, 57);">Lisboa</text><text text-anchor="middle" transform="translate(-189,-74)rotate(-59.99999955470795)scale(0.9999999865388264,0.9999999865388264)" style="font-size: 97px; font-family: Impact; fill: rgb(140, 162, 82);">Portimão</text><text text-anchor="middle" transform="translate(98,-143)rotate(30.00000044529205)scale(0.9999999865388264,0.9999999865388264)" style="font-size: 95px; font-family: Impact; fill: rgb(181, 207, 107);">Loulé</text><text text-anchor="middle" transform="translate(5,-100)rotate(30.000000445292052)scale(0.9999999865388264,0.9999999865388264)" style="font-size: 92px; font-family: Impact; fill: rgb(206, 219, 156);">Cascais</text><text text-anchor="middle" transform="translate(-315,-19)rotate(-59.99999955470795)scale(0.9999999865388264,0.9999999865388264)" style="font-size: 92px; font-family: Impact; fill: rgb(140, 109, 49);">Lagoa</text><text text-anchor="middle" transform="translate(-166,135)rotate(0)scale(1,1)" style="font-size: 89px; font-family: Impact; fill: rgb(189, 158, 57);">Porto</text><text text-anchor="middle" transform="translate(322,-144)rotate(-59.99999955470795)scale(0.9999999865388264,0.9999999865388264)" style="font-size: 86px; font-family: Impact; fill: rgb(231, 186, 82);">Lagos</text><text text-anchor="middle" transform="translate(-329,-125)rotate(-59.999999554707955)scale(0.9999999865388264,0.9999999865388264)" style="font-size: 61px; font-family: Impact; fill: rgb(123, 65, 115);">Évora</text><text text-anchor="middle" transform="translate(352,-10)rotate(30.00000044529205)scale(0.9999999865388264,0.9999999865388264)" style="font-size: 55px; font-family: Impact; fill: rgb(165, 81, 148);">Setubal</text><text text-anchor="middle" transform="translate(-133,168)rotate(30.00000044529205)scale(0.9999999865388264,0.9999999865388264)" style="font-size: 26px; font-family: Impact; fill: rgb(222, 158, 214);">Viseu</text><text text-anchor="middle" transform="translate(-133,-26)rotate(30.00000044529205)scale(0.9999999865388264,0.9999999865388264)" style="font-size: 10px; font-family: Impact; fill: rgb(57, 59, 121);">Aveiro</text><text text-anchor="middle" transform="translate(-29,-24)rotate(0)scale(1,1)" style="font-size: 66px; font-family: Impact; fill: rgb(231, 150, 156);">Ourém</text><text text-anchor="middle" transform="translate(-323,117)rotate(59.99999955470795)scale(0.9999999865388264,0.9999999865388264)" style="font-size: 38px; font-family: Impact; fill: rgb(206, 109, 189);">Braga</text><text text-anchor="middle" transform="translate(-302,-231)rotate(0)scale(1,1)" style="font-size: 71px; font-family: Impact; fill: rgb(214, 97, 107);">Coimbra</text><text text-anchor="middle" transform="translate(49,160)rotate(-30.00000044529205)scale(0.9999999865388264,0.9999999865388264)" style="font-size: 83px; font-family: Impact; fill: rgb(231, 203, 148);">Tavira</text><text text-anchor="middle" transform="translate(286,168)rotate(0)" style="font-size: 79px; font-family: Impact; fill: rgb(132, 60, 57);">Madeira</text></g></svg>